# xmcd CD database file
#
# Track frame offsets:
#	150
#	18885
#	37180
#	57042
#	69027
#	84260
#	113942
#	140315
#	152170
#	170652
#	187762
#
# Disc length: 2812 seconds
#
# Revision: 1
# Processed by: cddbd v1.5.1PL0 Copyright (c) Steve Scherf et al.
# Submitted via: CDex 1.51
#
DISCID=810afa0b
DTITLE=Bebe - Bossa Nossa
DYEAR=2000
DGENRE=Jazz
TTITLE0=Orange Afternoon
TTITLE1=ゆれてる
TTITLE2=Explique
TTITLE3=VEM COMIGO
TTITLE4=Watermelon
TTITLE5=Bossa Nossa
TTITLE6=恋のマエストロ
TTITLE7=Once More
TTITLE8=ダーリン
TTITLE9=MENTIRA
TTITLE10=引き潮
EXTD=YEAR: 2000
EXTT0=
EXTT1=
EXTT2=
EXTT3=
EXTT4=
EXTT5=
EXTT6=
EXTT7=
EXTT8=
EXTT9=
EXTT10=
PLAYORDER=
